# xmcd CD database file
#
# Track frame offsets:
#	150
#	23915
#	43092
#	64210
#	85427
#	105795
#	125752
#	149482
#
# Disc length: 2345 seconds
#
# Revision: 1
# Processed by: cddbd v1.5.2PL0 Copyright (c) Steve Scherf et al.
# Submitted via: CDex 1.51
#
DISCID=6f092708
DTITLE=矢野真紀 - やのまき
DYEAR=2005
DGENRE=Pop/Funk
TTITLE0=大きな翼
TTITLE1=夢を見ていた金魚
TTITLE2=オアシス
TTITLE3=いつか僕が還る場所
TTITLE4=さよなら色はブルー
TTITLE5=ボクの空
TTITLE6=夜曲
TTITLE7=このまま…
EXTD=YEAR: 2005
EXTT0=
EXTT1=
EXTT2=
EXTT3=
EXTT4=
EXTT5=
EXTT6=
EXTT7=
PLAYORDER=
